<svg xmlns="http://www.w3.org/2000/svg" height="800" width="1200" viewBox="-20.225205 -7.40295 175.28511 44.4177"><g fill="none"><path fill="#262729" d="M49.5347 9.8h-3.1v14.8h3.1v-6h6.8v6h3V9.8h-3v6h-6.8zm23.8 8.5c0 2.4-1.2 3.7-3.4 3.7s-3.4-1.3-3.4-3.8V9.8h-3v8.5c0 4.2 2.3 6.6 6.4 6.6 4.1 0 6.4-2.4 6.4-6.7V9.8h-3zm29-8.5l-3.4 10.2-3.3-10.2h-3.2l5.2 14.8h2.5l3.4-9.7 3.3 9.7h2.6l5.1-14.8h-3.1l-3.3 10.2-3.4-10.2zm23.1 5.7h-5.5v-3h8V9.8h-11v14.8h11.3v-2.7h-8.3v-3.7h5.5zm6.4-5.7h3v14.8h-3zm-42.8 11.7l1.3 3.1h3.2l-6.5-14.8-.1-.1h-2.6l-6.5 14.9h3.1l1.3-2.9.1-.2zm-3.4-8l2.1 5 .1.3h-4.6l.1-.3z"/><path d="M16.8347 23.1s.1-.1 0-.1c-4.6-10-10.9-17.7-10.9-17.7s-3.4 3.2-3.2 6.5c.1 2.5 2 3.9 2 3.9 3 2.9 10.2 6.6 11.9 7.4h.2m-1.2 2.5c0-.1-.2-.1-.2-.1l-12 .4c1.3 2.3 3.5 4.1 5.8 3.6 1.6-.4 5.2-2.9 6.3-3.7.2-.2.1-.2.1-.2m.2-1.1c.1-.1 0-.2 0-.2-5.3-3.6-15.5-9-15.5-9-.9 2.9.3 5.2.3 5.2 1.3 2.8 3.8 3.6 3.8 3.6 1.1.5 2.3.5 2.3.5h9c.1 0 .1-.1.1-.1m.8-24.4c-.5 0-1.9.4-1.9.4-3.2.8-3.9 3.7-3.9 3.7-.6 1.8 0 3.8 0 3.8 1.1 4.7 6.3 12.5 7.4 14.1l.1.1c.1 0 .1-.1.1-.1 1.8-17.5-1.8-22-1.8-22m4 22c.1 0 .2-.1.2-.1 1.2-1.7 6.3-9.4 7.4-14.1 0 0 .6-2.3 0-3.8 0 0-.8-2.9-4-3.7 0 0-.9-.2-1.9-.4 0 0-3.6 4.6-1.8 21.9 0 .2.1.2.1.2m2.8 3.4s-.1 0-.1.1v.2c1.2.8 4.6 3.3 6.3 3.7 0 0 3.1 1.1 5.8-3.6zm15.3-10.3s-10.2 5.5-15.5 9.1c0 0-.1.1-.1.2 0 0 0 .1.1.1h9.2s.9 0 2.1-.5c0 0 2.5-.8 3.9-3.7 0-.1 1.2-2.4.3-5.2m-16.5 7.9s.1.1.2 0c1.7-.9 8.9-4.5 11.9-7.4 0 0 1.9-1.5 2-3.9.2-3.4-3.2-6.5-3.2-6.5s-6.3 7.5-10.9 17.6c0 0-.1.1 0 .2" fill="#CF0A2C"/></g></svg>